#define loc_lac_width 16
#define loc_lac_height 16
static const unsigned char loc_lac_bits[] = {
   0xff, 0xff, 0x81, 0x81, 0xa5, 0xa5, 0x81, 0x81,
   0xbd, 0xbd, 0x81, 0x81, 0xbd, 0xbd, 0x81, 0x81,
   0xa5, 0xa5, 0x81, 0x81, 0x7e, 0x7e, 0x00, 0x00,
   0x00, 0x00, 0x00, 0x00, 0x00, 0x00, 0x00, 0x00
};